<svg xmlns="http://www.w3.org/2000/svg" viewBox="0 0 1440 320">
  <style>
    #wave {
      animation: waveAnime 10s linear infinite;
    }

    @keyframes waveAnime {
        0% {
          d: path('M0,160L26.7,144C53.3,128,107,96,160,117.3C213.3,139,267,213,320,208C373.3,203,427,117,480,112C533.3,107,587,181,640,224C693.3,267,747,277,800,261.3C853.3,245,907,203,960,186.7C1013.3,171,1067,181,1120,186.7C1173.3,192,1227,192,1280,186.7C1333.3,181,1387,171,1413,165.3L1440,160L1440,320L1413.3,320C1386.7,320,1333,320,1280,320C1226.7,320,1173,320,1120,320C1066.7,320,1013,320,960,320C906.7,320,853,320,800,320C746.7,320,693,320,640,320C586.7,320,533,320,480,320C426.7,320,373,320,320,320C266.7,320,213,320,160,320C106.7,320,53,320,27,320L0,320Z')
        }
        25% {
          d: path('M0,192L26.7,208C53.3,224,107,256,160,250.7C213.3,245,267,203,320,197.3C373.3,192,427,224,480,229.3C533.3,235,587,213,640,176C693.3,139,747,85,800,74.7C853.3,64,907,96,960,144C1013.3,192,1067,256,1120,256C1173.3,256,1227,192,1280,144C1333.3,96,1387,64,1413,48L1440,32L1440,320L1413.3,320C1386.7,320,1333,320,1280,320C1226.7,320,1173,320,1120,320C1066.7,320,1013,320,960,320C906.7,320,853,320,800,320C746.7,320,693,320,640,320C586.7,320,533,320,480,320C426.7,320,373,320,320,320C266.7,320,213,320,160,320C106.7,320,53,320,27,320L0,320Z')
        }
        50% {
            d: path('M0,32L26.7,42.7C53.3,53,107,75,160,74.7C213.3,75,267,53,320,58.7C373.3,64,427,96,480,128C533.3,160,587,192,640,208C693.3,224,747,224,800,192C853.3,160,907,96,960,101.3C1013.3,107,1067,181,1120,218.7C1173.3,256,1227,256,1280,213.3C1333.3,171,1387,85,1413,42.7L1440,0L1440,320L1413.3,320C1386.7,320,1333,320,1280,320C1226.7,320,1173,320,1120,320C1066.7,320,1013,320,960,320C906.7,320,853,320,800,320C746.7,320,693,320,640,320C586.7,320,533,320,480,320C426.7,320,373,320,320,320C266.7,320,213,320,160,320C106.7,320,53,320,27,320L0,320Z')
        }
        100% {
            d: path('M0,160L26.7,144C53.3,128,107,96,160,117.3C213.3,139,267,213,320,208C373.3,203,427,117,480,112C533.3,107,587,181,640,224C693.3,267,747,277,800,261.3C853.3,245,907,203,960,186.7C1013.3,171,1067,181,1120,186.7C1173.3,192,1227,192,1280,186.7C1333.3,181,1387,171,1413,165.3L1440,160L1440,320L1413.3,320C1386.7,320,1333,320,1280,320C1226.7,320,1173,320,1120,320C1066.7,320,1013,320,960,320C906.7,320,853,320,800,320C746.7,320,693,320,640,320C586.7,320,533,320,480,320C426.7,320,373,320,320,320C266.7,320,213,320,160,320C106.7,320,53,320,27,320L0,320Z')
        }
    } 
  </style>
  <path id="wave" fill="#0099ff" fill-opacity="1" d="M0,160L26.7,144C53.3,128,107,96,160,117.3C213.3,139,267,213,320,208C373.3,203,427,117,480,112C533.3,107,587,181,640,224C693.3,267,747,277,800,261.3C853.3,245,907,203,960,186.7C1013.3,171,1067,181,1120,186.7C1173.3,192,1227,192,1280,186.7C1333.3,181,1387,171,1413,165.3L1440,160L1440,320L1413.3,320C1386.7,320,1333,320,1280,320C1226.7,320,1173,320,1120,320C1066.7,320,1013,320,960,320C906.7,320,853,320,800,320C746.7,320,693,320,640,320C586.7,320,533,320,480,320C426.7,320,373,320,320,320C266.7,320,213,320,160,320C106.7,320,53,320,27,320L0,320Z"></path>
</svg>
